<svg width="87" height="87" viewBox="0 0 87 87" xmlns="http://www.w3.org/2000/svg" xmlns:xlink="http://www.w3.org/1999/xlink"><title>KQ_Icon Red</title><defs><path id="a" d="M0 0h48v58H0z"/></defs><g transform="translate(1 1)" fill="none" fill-rule="evenodd"><circle stroke="#D1D1D1" fill="#FFF" cx="42.5" cy="42.5" r="42.5"/><g transform="translate(18 15)"><mask id="b" fill="#fff"><use xlink:href="#a"/></mask><path d="M35.477 34.723l-3.394 3.417L24 30l-8.083 8.14-3.394-3.417 8.083-8.14-8.083-8.139 3.394-3.417L24 23.167l8.083-8.14 3.394 3.417-8.083 8.14 8.083 8.139zM45.6 7.25h-4.8c-7.561 0-12.77-4.508-15.215-6.635-.45-.391-1.01-.62-1.57-.615-.557.006-1.114.244-1.558.644C20.09 2.774 15.004 7.25 7.2 7.25H2.4A2.41 2.41 0 0 0 0 9.667V22c0 27.592 24.001 36 24.001 36S48 49.592 48 22V9.667a2.408 2.408 0 0 0-2.4-2.417z" fill="#E00808" mask="url(#b)"/></g></g></svg>