<svg width="87" height="87" viewBox="0 0 87 87" xmlns="http://www.w3.org/2000/svg"><title>KQ_Icon Yellow</title><g transform="translate(1 1)" fill="none" fill-rule="evenodd"><circle stroke="#D1D1D1" fill="#FFF" cx="42.5" cy="42.5" r="42.5"/><path d="M43.417 48.257h-3.835L37.948 33.21c0-1.914 1.59-3.466 3.552-3.466 1.961 0 3.552 1.552 3.552 3.466l-1.635 15.048zM41.5 56.371a2.522 2.522 0 0 1-2.522-2.514 2.522 2.522 0 0 1 5.043 0 2.52 2.52 0 0 1-2.521 2.514zm26.992 1.194L44.48 16.729a3.433 3.433 0 0 0-5.96 0L14.508 57.565c-1.405 2.387.267 5.435 2.98 5.435H65.51c2.713 0 4.385-3.048 2.981-5.435z" fill="#F8EB00"/></g></svg>