<svg width="87" height="87" viewBox="0 0 87 87" xmlns="http://www.w3.org/2000/svg" xmlns:xlink="http://www.w3.org/1999/xlink"><title>KQ_Green</title><defs><path id="a" d="M0 0h48v58H0z"/></defs><g transform="translate(1 1)" fill="none" fill-rule="evenodd"><circle stroke="#D1D1D1" fill="#FFF" cx="42.5" cy="42.5" r="42.5"/><g transform="translate(19 15)"><mask id="b" fill="#fff"><use xlink:href="#a"/></mask><path d="M48 9.667V22c0 27.592-23.999 36-23.999 36s-24-8.408-24-36V9.667A2.408 2.408 0 0 1 2.4 7.25h4.8c7.803 0 12.89-4.477 15.256-6.606.444-.4 1-.64 1.559-.644.559-.005 1.118.224 1.57.616C28.03 2.742 33.238 7.25 40.8 7.25h4.8A2.41 2.41 0 0 1 48 9.667" fill="#96CB59" mask="url(#b)"/></g><path d="M58.272 33.14c.82.826.82 2.166 0 2.991l-18.6 18.73a2.088 2.088 0 0 1-2.97 0l-8.974-9.04a2.122 2.122 0 0 1 0-2.988 2.087 2.087 0 0 1 2.97 0l7.49 7.54L55.302 33.14a2.089 2.089 0 0 1 2.97 0" fill="#FFF"/></g></svg>