<?xml version="1.0" encoding="UTF-8"?>
<svg width="87px" height="87px" viewBox="0 0 87 87" version="1.1" xmlns="http://www.w3.org/2000/svg" xmlns:xlink="http://www.w3.org/1999/xlink">
    <!-- Generator: Sketch 48.2 (47327) - http://www.bohemiancoding.com/sketch -->
    <title>KQ_Icon Yellow</title>
    <desc>Created with Sketch.</desc>
    <defs></defs>
    <g id="1400---Service-D2-Results" stroke="none" stroke-width="1" fill="none" fill-rule="evenodd" transform="translate(-516.000000, -2472.000000)">
        <g id="KQ_Icon-Yellow" transform="translate(517.000000, 2473.000000)">
            <circle id="Oval-Copy-9" stroke="#D1D1D1" fill="#FFFFFF" cx="42.5" cy="42.5" r="42.5"></circle>
            <g id="KQ_Icon_Yellow" transform="translate(14.000000, 15.000000)" fill="#F8EB00">
                <g id="Page-1">
                    <path d="M29.4167335,33.2570551 L25.5816348,33.2570551 L23.9476788,18.2089655 C23.9476788,16.2946684 25.5380932,14.7426592 27.4997571,14.7426592 C29.4614209,14.7426592 31.0518353,16.2946684 31.0518353,18.2089655 L29.4167335,33.2570551 Z M27.4997571,41.3713891 C26.1098632,41.3713891 24.9777815,40.2433824 24.9777815,38.8570884 C24.9777815,37.4707945 26.1098632,36.3427878 27.4997571,36.3427878 C28.8896509,36.3427878 30.0205867,37.4707945 30.0205867,38.8570884 C30.0205867,40.2433824 28.8896509,41.3713891 27.4997571,41.3713891 Z M54.4921139,42.5645391 L30.4800652,1.72886743 C29.1256922,-0.576289145 25.8738219,-0.576289145 24.5194489,1.72886743 L0.508546019,42.5645391 C-0.89624362,44.9519819 0.7755248,48 3.48885422,48 L51.5106599,48 C54.2239893,48 55.8957577,44.9519819 54.4921139,42.5645391 Z" id="Fill-1"></path>
                </g>
            </g>
        </g>
    </g>
</svg>