<?xml version="1.0" encoding="UTF-8"?>
<svg width="87px" height="87px" viewBox="0 0 87 87" version="1.1" xmlns="http://www.w3.org/2000/svg" xmlns:xlink="http://www.w3.org/1999/xlink">
    <!-- Generator: Sketch 48.2 (47327) - http://www.bohemiancoding.com/sketch -->
    <title>KQ_Green</title>
    <desc>Created with Sketch.</desc>
    <defs>
        <polygon id="path-1" points="0.00024 0 48 0 48 58 0.00024 58"></polygon>
    </defs>
    <g id="1400---Service-D2-Results" stroke="none" stroke-width="1" fill="none" fill-rule="evenodd" transform="translate(-236.000000, -2472.000000)">
        <g id="KQ_Green" transform="translate(237.000000, 2473.000000)">
            <circle id="Oval-Copy-8" stroke="#D1D1D1" fill="#FFFFFF" cx="42.5" cy="42.5" r="42.5"></circle>
            <g id="KQ_Icon_Green" transform="translate(19.000000, 15.000000)">
                <g id="Page-1">
                    <g id="Group-3" transform="translate(0.000000, 0.000121)">
                        <mask id="mask-2" fill="white">
                            <use xlink:href="#path-1"></use>
                        </mask>
                        <g id="Clip-2"></g>
                        <path d="M48.00024,9.66666667 L48.00024,22.000125 C48.00024,49.5924167 24.00144,58 24.00144,58 C24.00144,58 0.00024,49.5924167 0.00024,22.000125 L0.00024,9.66666667 C0.00024,8.33266667 1.07424,7.25 2.40024,7.25 L7.20024,7.25 C15.00384,7.25 20.09064,2.773125 22.45704,0.644041667 C22.90104,0.244083333 23.45784,0.00483333333 24.01584,1.4825516e-15 C24.57504,-0.00483333333 25.13424,0.223541667 25.58544,0.61625 C28.02984,2.74170833 33.23904,7.25 40.80024,7.25 L45.60024,7.25 C46.92504,7.25 48.00024,8.33266667 48.00024,9.66666667" id="Fill-1" fill="#96CB59" mask="url(#mask-2)"></path>
                    </g>
                    <path d="M39.27204,18.1404667 C40.09284,18.9657583 40.09284,20.3058 39.27204,21.1310917 L20.67204,39.8602583 C20.26164,40.2723 19.72524,40.478925 19.18764,40.478925 C18.64884,40.478925 18.11244,40.2723 17.70204,39.8602583 L8.72844,30.821925 C7.90764,29.9966333 7.90764,28.6565917 8.72844,27.8325083 C9.54804,27.0060083 10.87764,27.0060083 11.69724,27.8325083 L19.18764,35.3737167 L36.30204,18.1404667 C37.12284,17.3139667 38.45124,17.3139667 39.27204,18.1404667" id="Fill-4" fill="#FFFFFF"></path>
                </g>
            </g>
        </g>
    </g>
</svg>